<svg xmlns="http://www.w3.org/2000/svg" xmlns:xlink="http://www.w3.org/1999/xlink" width="500" zoomAndPan="magnify" viewBox="0 0 375 374.999991" height="500" preserveAspectRatio="xMidYMid meet" version="1.2"><defs><clipPath id="70b4f29347"><path d="M 26 323 L 184 323 L 184 342 L 26 342 Z M 26 323 "/></clipPath><clipPath id="7f09b2a9dd"><path d="M 123.375 126.292969 L 375 126.292969 L 375 375 L 123.375 375 Z M 123.375 126.292969 "/></clipPath><clipPath id="853346aa78"><path d="M 249.1875 126.292969 C 179.703125 126.292969 123.375 182.621094 123.375 252.105469 C 123.375 321.589844 179.703125 377.917969 249.1875 377.917969 C 318.671875 377.917969 375 321.589844 375 252.105469 C 375 182.621094 318.671875 126.292969 249.1875 126.292969 Z M 249.1875 126.292969 "/></clipPath><clipPath id="b5e4fcb250"><path d="M 136.746094 139.664062 L 361.625 139.664062 L 361.625 364.542969 L 136.746094 364.542969 Z M 136.746094 139.664062 "/></clipPath><clipPath id="e024fdd297"><path d="M 249.1875 139.664062 C 187.089844 139.664062 136.746094 190.007812 136.746094 252.105469 C 136.746094 314.203125 187.089844 364.542969 249.1875 364.542969 C 311.285156 364.542969 361.625 314.203125 361.625 252.105469 C 361.625 190.007812 311.285156 139.664062 249.1875 139.664062 Z M 249.1875 139.664062 "/></clipPath><clipPath id="a40ced0e35"><path d="M 136.746094 139.664062 L 361.613281 139.664062 L 361.613281 364.53125 L 136.746094 364.53125 Z M 136.746094 139.664062 "/></clipPath><clipPath id="e46f46c7df"><path d="M 249.179688 139.664062 C 187.085938 139.664062 136.746094 190.003906 136.746094 252.097656 C 136.746094 314.195312 187.085938 364.53125 249.179688 364.53125 C 311.273438 364.53125 361.613281 314.195312 361.613281 252.097656 C 361.613281 190.003906 311.273438 139.664062 249.179688 139.664062 Z M 249.179688 139.664062 "/></clipPath></defs><g id="fc63d5c98f"><path style=" stroke:none;fill-rule:nonzero;fill:#f57e26;fill-opacity:1;" d="M 98.757812 264.65625 L 51.664062 264.65625 L 51.664062 200.539062 L 98.757812 200.539062 L 98.757812 264.65625 "/><path style="fill:none;stroke-width:30;stroke-linecap:round;stroke-linejoin:round;stroke:#181821;stroke-opacity:1;stroke-miterlimit:10;" d="M 1581.980323 1551.369938 L 1292.532772 1551.369938 L 1292.532772 1945.44692 L 1581.980323 1945.44692 Z M 1581.980323 1551.369938 " transform="matrix(0.162702,0,0,-0.162702,-158.633848,517.067534)"/><path style=" stroke:none;fill-rule:nonzero;fill:#f57e26;fill-opacity:1;" d="M 72.816406 199.550781 L 51.664062 199.550781 L 51.664062 176.503906 L 72.816406 176.503906 L 72.816406 199.550781 "/><path style="fill:none;stroke-width:30;stroke-linecap:round;stroke-linejoin:round;stroke:#181821;stroke-opacity:1;stroke-miterlimit:10;" d="M 1422.539283 1951.521093 L 1292.532772 1951.521093 L 1292.532772 2093.171769 L 1422.539283 2093.171769 Z M 1422.539283 1951.521093 " transform="matrix(0.162702,0,0,-0.162702,-158.633848,517.067534)"/><path style=" stroke:none;fill-rule:nonzero;fill:#f57e26;fill-opacity:1;" d="M 307.546875 81.722656 L 319.132812 75.0625 L 331.875 97.242188 L 320.289062 103.90625 L 307.546875 81.722656 "/><path style="fill:none;stroke-width:30;stroke-linecap:round;stroke-linejoin:round;stroke:#181821;stroke-opacity:1;stroke-miterlimit:10;" d="M 2865.239414 2675.716177 L 2936.448889 2716.650821 L 3014.764907 2580.330052 L 2943.555432 2539.371399 Z M 2865.239414 2675.716177 " transform="matrix(0.162702,0,0,-0.162702,-158.633848,517.067534)"/><path style=" stroke:none;fill-rule:nonzero;fill:#f57e26;fill-opacity:1;" d="M 310.476562 99.855469 L 333.324219 86.726562 L 339.691406 97.816406 L 316.851562 110.945312 L 310.476562 99.855469 "/><path style="fill:none;stroke-width:30;stroke-linecap:round;stroke-linejoin:round;stroke:#181821;stroke-opacity:1;stroke-miterlimit:10;" d="M 2883.245856 2564.268306 L 3023.672094 2644.961174 L 3062.806094 2576.800789 L 2922.427873 2496.107921 Z M 2883.245856 2564.268306 " transform="matrix(0.162702,0,0,-0.162702,-158.633848,517.067534)"/><path style=" stroke:none;fill-rule:nonzero;fill:#f57e26;fill-opacity:1;" d="M 306.75 116.75 L 349.792969 92.011719 L 352.976562 97.5625 L 309.9375 122.292969 L 306.75 116.75 "/><path style="fill:none;stroke-width:30;stroke-linecap:round;stroke-linejoin:round;stroke:#181821;stroke-opacity:1;stroke-miterlimit:10;" d="M 2860.341662 2460.431158 L 3124.892306 2612.477553 L 3144.459306 2578.361348 L 2879.932671 2426.386978 Z M 2860.341662 2460.431158 " transform="matrix(0.162702,0,0,-0.162702,-158.633848,517.067534)"/><path style=" stroke:none;fill-rule:nonzero;fill:#f57e26;fill-opacity:1;" d="M 354.507812 118.59375 L 359.769531 115.566406 L 371.75 136.433594 L 366.5 139.449219 L 354.507812 118.59375 "/><path style="fill:none;stroke-width:30;stroke-linecap:round;stroke-linejoin:round;stroke:#181821;stroke-opacity:1;stroke-miterlimit:10;" d="M 3153.870673 2449.099104 L 3186.210243 2467.70576 L 3259.844586 2339.451877 L 3227.577042 2320.917246 Z M 3153.870673 2449.099104 " transform="matrix(0.162702,0,0,-0.162702,-158.633848,517.067534)"/><path style=" stroke:none;fill-rule:nonzero;fill:#f57e26;fill-opacity:1;" d="M 339.433594 105.339844 L 350.28125 99.113281 L 362.265625 119.972656 L 351.417969 126.207031 L 339.433594 105.339844 "/><path style="fill:none;stroke-width:30;stroke-linecap:round;stroke-linejoin:round;stroke:#181821;stroke-opacity:1;stroke-miterlimit:10;" d="M 3061.221527 2530.560247 L 3127.893379 2568.829938 L 3201.551731 2440.624072 L 3134.879879 2402.306363 Z M 3061.221527 2530.560247 " transform="matrix(0.162702,0,0,-0.162702,-158.633848,517.067534)"/><path style=" stroke:none;fill-rule:nonzero;fill:#f57e26;fill-opacity:1;" d="M 327.332031 134.207031 L 322.082031 137.226562 L 334.0625 158.085938 L 339.324219 155.066406 L 327.332031 134.207031 "/><path style="fill:none;stroke-width:30;stroke-linecap:round;stroke-linejoin:round;stroke:#181821;stroke-opacity:1;stroke-miterlimit:10;" d="M 2986.842918 2353.136773 L 2954.575374 2334.578133 L 3028.209717 2206.372267 L 3060.549287 2224.930907 Z M 2986.842918 2353.136773 " transform="matrix(0.162702,0,0,-0.162702,-158.633848,517.067534)"/><path style=" stroke:none;fill-rule:nonzero;fill:#f57e26;fill-opacity:1;" d="M 323.484375 114.503906 L 312.636719 120.742188 L 324.625 141.597656 L 335.472656 135.363281 L 323.484375 114.503906 "/><path style="fill:none;stroke-width:30;stroke-linecap:round;stroke-linejoin:round;stroke:#181821;stroke-opacity:1;stroke-miterlimit:10;" d="M 2963.194458 2474.236096 L 2896.522606 2435.89438 L 2970.204966 2307.712522 L 3036.876818 2346.03023 Z M 2963.194458 2474.236096 " transform="matrix(0.162702,0,0,-0.162702,-158.633848,517.067534)"/><path style=" stroke:none;fill-rule:nonzero;fill:#f57e26;fill-opacity:1;" d="M 99.089844 47.804688 L 104.230469 21.695312 L 256.226562 51.628906 L 251.082031 77.738281 L 99.089844 47.804688 "/><path style="fill:none;stroke-width:30;stroke-linecap:round;stroke-linejoin:round;stroke:#181821;stroke-opacity:1;stroke-miterlimit:10;" d="M 1584.021053 2884.182756 L 1615.616357 3044.656166 L 2549.81457 2860.678348 L 2518.195258 2700.204938 Z M 1584.021053 2884.182756 " transform="matrix(0.162702,0,0,-0.162702,-158.633848,517.067534)"/><path style=" stroke:none;fill-rule:nonzero;fill:#f57e26;fill-opacity:1;" d="M 64.625 13.890625 L 7.933594 2.730469 L 2.789062 28.839844 L 59.480469 40.003906 C 63.078125 31.6875 64.796875 22.960938 64.625 13.890625 "/><path style="fill:none;stroke-width:30;stroke-linecap:round;stroke-linejoin:round;stroke:#181821;stroke-opacity:1;stroke-miterlimit:10;" d="M 1372.193271 3092.625328 L 1023.756617 3161.217867 L 992.137305 3000.744457 L 1340.573959 2932.127909 C 1362.68587 2983.242195 1373.249649 3036.877383 1372.193271 3092.625328 Z M 1372.193271 3092.625328 " transform="matrix(0.162702,0,0,-0.162702,-158.633848,517.067534)"/><path style=" stroke:none;fill-rule:nonzero;fill:#f57e26;fill-opacity:1;" d="M 120.707031 57.898438 L 128.058594 20.550781 L 119.078125 18.785156 L 111.730469 56.128906 L 120.707031 57.898438 "/><path style="fill:none;stroke-width:30;stroke-linecap:round;stroke-linejoin:round;stroke:#181821;stroke-opacity:1;stroke-miterlimit:10;" d="M 1716.884586 2822.144562 L 1762.068751 3051.690683 L 1706.873004 3062.542565 L 1661.712848 2833.020453 Z M 1716.884586 2822.144562 " transform="matrix(0.162702,0,0,-0.162702,-158.633848,517.067534)"/><path style=" stroke:none;fill-rule:nonzero;fill:#f57e26;fill-opacity:1;" d="M 109.699219 66.433594 L 111.730469 56.128906 L 119.078125 18.785156 L 121.113281 8.480469 C 103.09375 6.671875 85.078125 4.859375 67.058594 3.046875 C 66.878906 4.839844 66.675781 6.632812 66.460938 8.417969 C 64.921875 21.035156 62.464844 33.515625 59.109375 45.765625 C 58.625 47.503906 58.136719 49.234375 57.621094 50.96875 C 74.984375 56.125 92.339844 61.277344 109.699219 66.433594 "/><path style="fill:none;stroke-width:30;stroke-linecap:round;stroke-linejoin:round;stroke:#181821;stroke-opacity:1;stroke-miterlimit:10;" d="M 1649.228382 2769.685795 L 1661.712848 2833.020453 L 1706.873004 3062.542565 L 1719.381479 3125.877224 C 1608.629857 3136.9932 1497.902244 3148.133186 1387.150622 3159.273171 C 1386.046227 3148.253229 1384.79778 3137.233286 1383.477308 3126.261361 C 1374.017924 3048.713618 1358.916521 2972.006176 1338.293143 2896.71524 C 1335.316078 2886.031418 1332.315005 2875.395613 1329.145871 2864.735799 C 1435.86405 2833.044461 1542.534211 2801.377132 1649.228382 2769.685795 Z M 1649.228382 2769.685795 " transform="matrix(0.162702,0,0,-0.162702,-158.633848,517.067534)"/><path style=" stroke:none;fill-rule:nonzero;fill:#f57e26;fill-opacity:1;" d="M 282.339844 70.339844 C 283.585938 64.03125 289.699219 59.925781 296.011719 61.164062 C 302.320312 62.410156 306.425781 68.53125 305.183594 74.835938 C 303.941406 81.144531 297.820312 85.25 291.511719 84.003906 C 285.207031 82.765625 281.101562 76.644531 282.339844 70.339844 Z M 297.148438 94.332031 C 307.335938 94.816406 316.609375 87.785156 318.636719 77.484375 C 320.664062 67.183594 314.753906 57.160156 305.144531 53.753906 L 305.183594 53.523438 L 226.582031 38.042969 L 218.503906 79.074219 L 297.105469 94.554688 L 297.148438 94.332031 "/><path style="fill:none;stroke-width:30;stroke-linecap:round;stroke-linejoin:round;stroke:#181821;stroke-opacity:1;stroke-miterlimit:10;" d="M 2710.311988 2745.677206 C 2717.970728 2784.451077 2755.54417 2809.684104 2794.34205 2802.073381 C 2833.115922 2794.414642 2858.348949 2756.793182 2850.714218 2718.043319 C 2843.079486 2679.269448 2805.458027 2654.036421 2766.684156 2661.695161 C 2727.934293 2669.305883 2702.701265 2706.927343 2710.311988 2745.677206 Z M 2801.32855 2598.216451 C 2863.94295 2595.239386 2920.939341 2638.454846 2933.399799 2701.765496 C 2945.860256 2765.076146 2909.535261 2826.682185 2850.474132 2847.617675 L 2850.714218 2849.034182 L 2367.613386 2944.180221 L 2317.963624 2691.994 L 2801.064455 2596.847961 Z M 2801.32855 2598.216451 " transform="matrix(0.162702,0,0,-0.162702,-158.633848,517.067534)"/><path style=" stroke:none;fill-rule:nonzero;fill:#f57e26;fill-opacity:1;" d="M 59.875 264.65625 C 59.875 264.65625 93.816406 135.433594 135.921875 135.433594 C 178.027344 135.433594 173.175781 168.183594 173.175781 168.183594 L 160.027344 264.65625 L 59.875 264.65625 "/><path style="fill:none;stroke-width:30;stroke-linecap:round;stroke-linejoin:round;stroke:#181821;stroke-opacity:1;stroke-miterlimit:10;" d="M 1342.998827 1551.369938 C 1342.998827 1551.369938 1551.609458 2345.598076 1810.398041 2345.598076 C 2069.186623 2345.598076 2039.367955 2144.310064 2039.367955 2144.310064 L 1958.555044 1551.369938 Z M 1342.998827 1551.369938 " transform="matrix(0.162702,0,0,-0.162702,-158.633848,517.067534)"/><path style=" stroke:none;fill-rule:nonzero;fill:#f57e26;fill-opacity:1;" d="M 129.507812 136.425781 C 90.421875 148.363281 59.875 264.65625 59.875 264.65625 L 129.507812 264.65625 L 129.507812 136.425781 "/><path style="fill:none;stroke-width:30;stroke-linecap:round;stroke-linejoin:round;stroke:#181821;stroke-opacity:1;stroke-miterlimit:10;" d="M 1770.975937 2339.499894 C 1530.745994 2266.129646 1342.998827 1551.369938 1342.998827 1551.369938 L 1770.975937 1551.369938 Z M 1770.975937 2339.499894 " transform="matrix(0.162702,0,0,-0.162702,-158.633848,517.067534)"/><path style=" stroke:none;fill-rule:nonzero;fill:#f57e26;fill-opacity:1;" d="M 180.671875 339.59375 L 28.632812 339.59375 L 28.632812 326.121094 L 180.671875 326.121094 L 180.671875 339.59375 "/><g clip-rule="nonzero" clip-path="url(#70b4f29347)"><path style="fill:none;stroke-width:30;stroke-linecap:round;stroke-linejoin:round;stroke:#181821;stroke-opacity:1;stroke-miterlimit:10;" d="M 2085.440438 1090.789163 L 1150.978131 1090.789163 L 1150.978131 1173.594787 L 2085.440438 1173.594787 Z M 2085.440438 1090.789163 " transform="matrix(0.162702,0,0,-0.162702,-158.633848,517.067534)"/></g><path style=" stroke:none;fill-rule:nonzero;fill:#f57e26;fill-opacity:1;" d="M 43.453125 268.972656 L 165.84375 268.972656 L 165.84375 326.121094 L 43.453125 326.121094 L 43.453125 268.972656 "/><path style="fill:none;stroke-width:30;stroke-linecap:round;stroke-linejoin:round;stroke:#181821;stroke-opacity:1;stroke-miterlimit:10;" d="M 1242.066718 1524.840447 L 1994.303834 1524.840447 L 1994.303834 1173.594787 L 1242.066718 1173.594787 Z M 1242.066718 1524.840447 " transform="matrix(0.162702,0,0,-0.162702,-158.633848,517.067534)"/><path style=" stroke:none;fill-rule:nonzero;fill:#f57e26;fill-opacity:1;" d="M 172.3125 264.65625 L 36.984375 264.65625 L 36.984375 268.972656 L 172.3125 268.972656 L 172.3125 264.65625 "/><path style="fill:none;stroke-width:30;stroke-linecap:round;stroke-linejoin:round;stroke:#181821;stroke-opacity:1;stroke-miterlimit:10;" d="M 1202.308494 1524.840447 L 2034.062057 1524.840447 L 2034.062057 1551.369938 L 1202.308494 1551.369938 Z M 1202.308494 1524.840447 " transform="matrix(0.162702,0,0,-0.162702,-158.633848,517.067534)"/><path style=" stroke:none;fill-rule:nonzero;fill:#f57e26;fill-opacity:1;" d="M 102.078125 52.132812 C 85.78125 18.089844 58.140625 32.722656 58.140625 32.722656 C 58.140625 32.722656 32.933594 51.242188 56.488281 80.730469 C 80.042969 110.222656 102.425781 179.289062 118.691406 205.210938 C 134.953125 231.148438 169.5625 210.347656 169.5625 210.347656 C 169.5625 210.347656 203.347656 188.25 187.082031 162.3125 C 170.820312 136.386719 118.378906 86.171875 102.078125 52.132812 "/><path style="fill:none;stroke-width:30;stroke-linecap:round;stroke-linejoin:round;stroke:#181821;stroke-opacity:1;stroke-miterlimit:10;" d="M 1602.387624 2857.58124 C 1502.22379 3066.816094 1332.339013 2976.879919 1332.339013 2976.879919 C 1332.339013 2976.879919 1177.411587 2863.055198 1322.18338 2681.814358 C 1466.955173 2500.54951 1604.524388 2076.053645 1704.496154 1916.732647 C 1804.44391 1757.315615 2017.16001 1885.161353 2017.16001 1885.161353 C 2017.16001 1885.161353 2224.810298 2020.977942 2124.838533 2180.394974 C 2024.890776 2339.73998 1702.575467 2648.370394 1602.387624 2857.58124 Z M 1602.387624 2857.58124 " transform="matrix(0.162702,0,0,-0.162702,-158.633848,517.067534)"/><path style=" stroke:none;fill-rule:nonzero;fill:#f57e26;fill-opacity:1;" d="M 88.140625 49.582031 C 92.964844 57.28125 90.644531 67.4375 82.945312 72.265625 C 75.246094 77.089844 65.089844 74.769531 60.257812 67.066406 C 55.433594 59.371094 57.761719 49.214844 65.457031 44.390625 C 73.152344 39.5625 83.308594 41.886719 88.140625 49.582031 "/><path style="fill:none;stroke-width:30;stroke-linecap:round;stroke-linejoin:round;stroke:#181821;stroke-opacity:1;stroke-miterlimit:10;" d="M 1516.724978 2873.258848 C 1546.375586 2825.937919 1532.114484 2763.515587 1484.793554 2733.840971 C 1437.472625 2704.190363 1375.050293 2718.451465 1345.351668 2765.796403 C 1315.701061 2813.093324 1330.01018 2875.515656 1377.307101 2905.166263 C 1424.604021 2934.84088 1487.026353 2920.555769 1516.724978 2873.258848 Z M 1516.724978 2873.258848 " transform="matrix(0.162702,0,0,-0.162702,-158.633848,517.067534)"/><path style=" stroke:none;fill-rule:nonzero;fill:#f57e26;fill-opacity:1;" d="M 170.667969 166.75 C 177.734375 178.015625 174.332031 192.902344 163.050781 199.976562 C 151.777344 207.046875 136.898438 203.640625 129.824219 192.359375 C 122.75 181.085938 126.160156 166.207031 137.433594 159.132812 C 148.714844 152.058594 163.59375 155.46875 170.667969 166.75 "/><path style="fill:none;stroke-width:30;stroke-linecap:round;stroke-linejoin:round;stroke:#181821;stroke-opacity:1;stroke-miterlimit:10;" d="M 2023.954441 2153.121216 C 2067.385979 2083.880445 2046.474498 1992.383712 1977.137692 1948.904157 C 1907.848904 1905.448611 1816.400188 1926.3841 1772.920633 1995.720906 C 1729.465086 2065.009694 1750.400576 2156.45841 1819.689365 2199.937965 C 1889.02617 2243.41752 1980.474886 2222.458022 2023.954441 2153.121216 Z M 2023.954441 2153.121216 " transform="matrix(0.162702,0,0,-0.162702,-158.633848,517.067534)"/><g clip-rule="nonzero" clip-path="url(#7f09b2a9dd)"><g clip-rule="nonzero" clip-path="url(#853346aa78)"><path style=" stroke:none;fill-rule:nonzero;fill:#000000;fill-opacity:1;" d="M 123.375 126.292969 L 375 126.292969 L 375 377.917969 L 123.375 377.917969 Z M 123.375 126.292969 "/></g></g><g clip-rule="nonzero" clip-path="url(#b5e4fcb250)"><g clip-rule="nonzero" clip-path="url(#e024fdd297)"><path style=" stroke:none;fill-rule:nonzero;fill:#f57e26;fill-opacity:1;" d="M 136.746094 139.664062 L 361.625 139.664062 L 361.625 364.542969 L 136.746094 364.542969 Z M 136.746094 139.664062 "/></g></g><g clip-rule="nonzero" clip-path="url(#a40ced0e35)"><g clip-rule="nonzero" clip-path="url(#e46f46c7df)"><path style="fill:none;stroke-width:10.843362;stroke-linecap:butt;stroke-linejoin:miter;stroke:#000000;stroke-opacity:1;stroke-miterlimit:4;" d="M 135.460458 -0.00228377 C 60.648788 -0.00228377 -0.00156454 60.648068 -0.00156454 135.459739 C -0.00156454 210.276115 60.648788 270.921761 135.460458 270.921761 C 210.272128 270.921761 270.92248 210.276115 270.92248 135.459739 C 270.92248 60.648068 210.272128 -0.00228377 135.460458 -0.00228377 Z M 135.460458 -0.00228377 " transform="matrix(0.830001,0,0,0.830001,136.747392,139.665958)"/></g></g><g style="fill:#000000;fill-opacity:1;"><g transform="translate(183.351585, 336.233042)"><path style="stroke:none" d="M 37.0625 -55.59375 L 37.0625 -74.125 L 74.125 -74.125 L 74.125 -92.65625 L 92.65625 -92.65625 L 92.65625 -111.1875 L 37.0625 -111.1875 L 37.0625 -92.65625 L 0 -92.65625 L 0 -129.71875 L 18.53125 -129.71875 L 18.53125 -148.25 L 111.1875 -148.25 L 111.1875 -129.71875 L 129.71875 -129.71875 L 129.71875 -92.65625 L 111.1875 -92.65625 L 111.1875 -74.125 L 92.65625 -74.125 L 92.65625 -55.59375 Z M 37.0625 -18.53125 L 37.0625 -37.0625 L 92.65625 -37.0625 L 92.65625 -18.53125 Z M 37.0625 -18.53125 "/></g></g></g></svg>